<?xml version="1.0" standalone="no"?>
<!DOCTYPE svg PUBLIC "-//W3C//DTD SVG 20010904//EN"
 "http://www.w3.org/TR/2001/REC-SVG-20010904/DTD/svg10.dtd">
<svg version="1.0" xmlns="http://www.w3.org/2000/svg"
 width="1690.000000pt" height="942.000000pt" viewBox="0 0 1690.000000 942.000000"
 preserveAspectRatio="xMidYMid meet">

<g transform="translate(0.000000,942.000000) scale(0.100000,-0.100000)"
fill="#000000" stroke="none">
<path d="M0 4710 l0 -4710 5118 0 5118 0 65 68 c36 37 135 143 220 237 358
393 1208 1266 1266 1299 31 17 -2 -23 -112 -136 -102 -104 -332 -346 -710
-747 -245 -261 -611 -654 -640 -688 l-27 -33 140 0 140 0 59 62 c33 35 133
142 223 238 200 214 747 780 879 910 327 322 482 463 729 668 15 12 80 67 145
122 109 92 158 122 174 106 12 -11 -49 -76 -424 -451 -209 -209 -483 -490
-609 -625 -126 -135 -297 -315 -380 -400 -82 -85 -177 -184 -210 -220 -32 -35
-132 -141 -222 -235 l-164 -170 303 -3 c353 -3 297 -22 445 153 140 166 258
301 373 426 57 63 143 157 190 209 253 279 580 608 721 725 25 21 68 58 96 84
51 45 77 66 199 157 33 24 71 53 85 64 14 11 30 20 36 20 7 0 14 7 18 15 3 8
12 15 19 15 8 0 26 12 41 26 14 15 26 24 26 20 0 -4 7 -1 15 6 78 70 263 177
284 163 6 -3 11 -1 11 6 0 19 13 1 17 -23 2 -12 8 -28 15 -35 8 -10 7 -12 -5
-8 -8 4 -18 1 -23 -6 -4 -8 -3 -10 4 -5 15 9 4 -23 -16 -46 -8 -10 -14 -29
-14 -42 0 -23 -3 -24 -22 -14 -19 10 -19 9 -8 -5 11 -13 10 -17 -4 -25 -16 -9
-15 -10 5 -17 21 -6 21 -8 5 -20 -10 -7 -24 -11 -31 -8 -16 6 -17 -9 -2 -24 7
-7 3 -9 -15 -6 -22 5 -25 3 -19 -13 6 -17 5 -17 -10 -5 -9 7 -17 9 -17 3 0
-16 26 -22 40 -9 10 10 10 7 1 -11 -7 -12 -9 -27 -6 -32 3 -6 -1 -10 -10 -10
-11 0 -15 -5 -12 -14 7 -19 -3 -28 -18 -16 -8 6 -11 -1 -12 -26 -1 -31 4 -39
34 -56 30 -18 33 -22 18 -31 -23 -12 -57 -47 -47 -47 4 0 13 5 18 10 7 7 17 5
30 -4 18 -15 18 -15 -3 -9 -17 4 -23 1 -23 -11 0 -10 -4 -15 -9 -12 -5 3 -11
-1 -15 -9 -8 -22 15 -30 31 -10 10 15 13 15 13 4 0 -8 -5 -20 -12 -27 -9 -9
-9 -12 3 -12 8 0 20 5 27 12 15 15 15 8 2 -27 -12 -32 2 -65 28 -65 13 0 14
-2 3 -9 -7 -5 -11 -13 -7 -19 3 -6 2 -13 -4 -17 -5 -3 -10 -11 -10 -17 0 -7 4
-7 13 -1 6 6 21 13 31 17 19 7 19 6 2 -13 -10 -11 -13 -22 -8 -25 6 -3 12 -1
14 5 3 8 10 6 21 -6 10 -10 15 -25 12 -35 -4 -13 -1 -17 11 -16 11 0 20 -9 25
-27 4 -16 4 -25 -2 -21 -5 3 -9 15 -9 27 0 15 -3 18 -11 10 -9 -9 -6 -18 9
-38 12 -15 23 -21 27 -15 12 20 25 10 25 -20 0 -17 9 -39 20 -50 21 -21 27
-35 10 -25 -6 3 -7 -1 -4 -9 3 -9 1 -16 -6 -16 -6 0 -8 -5 -4 -11 3 -6 0 -15
-7 -20 -11 -7 -10 -9 3 -9 18 0 42 -33 32 -43 -3 -3 -13 -3 -22 1 -15 5 -15 4
-3 -11 8 -11 21 -15 32 -12 11 4 19 2 19 -5 0 -6 -4 -8 -10 -5 -5 3 -10 3 -11
-2 0 -4 -2 -16 -4 -25 -2 -11 3 -18 12 -18 12 0 12 -2 -1 -16 -20 -19 -20 -28
-2 -21 18 7 15 -24 -4 -40 -13 -11 -13 -12 3 -13 18 0 22 -10 8 -26 -14 -15
-22 -74 -10 -74 6 0 7 -5 4 -10 -4 -6 -11 -8 -16 -5 -8 5 -14 -16 -10 -38 0
-4 -5 -7 -13 -7 -18 0 -26 -32 -14 -54 6 -11 5 -16 -3 -16 -6 0 -8 -7 -5 -16
3 -8 2 -13 -3 -10 -5 3 -11 -1 -15 -9 -3 -8 -1 -15 4 -15 6 0 10 -7 10 -15 0
-8 -6 -14 -12 -12 -8 1 -13 -9 -13 -28 0 -16 -4 -36 -8 -43 -5 -6 -5 -17 -2
-22 4 -6 1 -9 -6 -8 -6 2 -14 -3 -17 -11 -3 -8 0 -11 7 -7 14 9 14 -9 1 -34
-7 -13 -7 -21 1 -26 8 -5 4 -13 -12 -26 -17 -14 -19 -18 -6 -14 15 5 16 2 7
-13 -7 -14 -6 -21 3 -24 6 -3 3 -6 -8 -6 -16 -1 -17 -3 -5 -10 8 -6 18 -7 23
-4 5 3 1 -7 -8 -21 -10 -15 -14 -26 -9 -24 5 1 21 -6 36 -16 15 -10 32 -15 37
-12 5 4 14 -2 20 -11 8 -14 10 -15 11 -3 0 13 1 13 10 0 8 -12 10 -12 10 5 0
12 3 16 8 9 10 -15 148 -11 187 5 33 14 46 16 211 36 18 2 54 7 80 11 89 12
374 12 374 0 0 -6 4 -5 9 3 7 10 13 12 23 5 7 -6 29 -10 48 -9 19 0 49 -5 66
-12 17 -7 34 -9 38 -6 3 4 6 1 6 -5 0 -7 5 -12 11 -12 5 0 7 5 3 11 -9 15 38
0 48 -15 4 -6 8 -8 8 -4 0 4 17 -4 37 -18 20 -13 43 -22 50 -20 7 3 13 -1 13
-10 0 -8 4 -13 9 -10 4 3 13 -6 20 -20 6 -14 17 -24 23 -23 7 1 27 -4 43 -11
17 -7 32 -14 35 -15 3 0 19 -9 37 -18 29 -16 100 -17 888 -17 l855 0 0 4710 0
4710 -8450 0 -8450 0 0 -4710z m13170 3740 c20 -16 22 -22 11 -29 -9 -6 -10
-11 -2 -15 6 -4 9 -11 6 -16 -3 -5 -1 -20 5 -35 9 -23 8 -26 -5 -21 -9 3 -13
2 -10 -4 3 -5 1 -19 -5 -30 -7 -13 -7 -20 0 -20 5 0 10 5 10 12 0 6 2 9 5 6 3
-3 0 -18 -7 -34 -16 -39 -11 -96 9 -111 16 -12 16 -13 0 -13 -20 0 -24 -40 -4
-41 9 0 9 -2 -1 -6 -10 -4 -10 -8 -1 -19 9 -11 8 -14 -5 -14 -10 0 -14 -5 -11
-10 4 -6 10 -8 15 -5 4 3 4 -11 0 -31 -5 -20 -7 -46 -4 -57 2 -12 -3 -31 -11
-44 -9 -14 -11 -23 -5 -23 7 0 8 -5 3 -12 -4 -7 -8 -19 -9 -26 -2 -8 -9 -21
-16 -30 -8 -10 -13 -27 -12 -39 0 -12 -3 -20 -7 -17 -8 4 -14 -25 -10 -48 0
-4 -8 -10 -19 -13 -11 -4 -18 -10 -15 -15 7 -11 -22 -70 -34 -70 -4 0 -7 -11
-6 -24 2 -17 -6 -30 -27 -46 -16 -12 -27 -28 -24 -35 2 -7 -12 -30 -32 -51
-20 -21 -36 -42 -34 -47 1 -5 -12 -26 -30 -47 -46 -53 -68 -83 -68 -93 0 -4
-4 -5 -10 -2 -5 3 -10 3 -10 -2 0 -4 -24 -33 -53 -64 -28 -31 -60 -66 -70 -78
-10 -12 -22 -19 -27 -16 -5 3 -7 0 -4 -8 3 -9 -3 -17 -16 -20 -12 -3 -20 -10
-17 -15 8 -11 -29 -42 -50 -42 -9 0 -13 -3 -10 -7 4 -3 -4 -16 -18 -28 -13
-13 -21 -26 -18 -29 4 -3 -1 -6 -10 -6 -10 0 -17 -4 -17 -10 0 -5 -7 -7 -16
-3 -14 5 -16 1 -12 -20 4 -19 1 -27 -9 -27 -10 0 -13 -6 -9 -16 3 -8 2 -13 -3
-10 -5 3 -17 -6 -26 -20 -9 -15 -12 -24 -7 -20 6 3 13 2 17 -4 3 -6 -3 -10
-16 -10 -19 0 -20 -2 -8 -16 11 -14 11 -18 -4 -29 -12 -9 -14 -15 -7 -20 6 -4
8 -15 5 -26 -4 -11 -2 -19 4 -19 6 0 11 5 11 12 0 6 3 8 6 5 4 -4 1 -14 -6
-22 -11 -13 -10 -19 8 -35 11 -11 22 -16 25 -12 2 4 2 1 0 -6 -4 -17 24 -45
36 -37 5 3 13 0 17 -6 4 -8 3 -9 -4 -5 -8 4 -10 2 -6 -8 3 -8 12 -12 19 -10 7
3 16 0 20 -5 3 -6 11 -9 16 -6 5 4 9 0 9 -8 0 -8 13 -20 30 -27 16 -7 41 -23
56 -37 26 -24 63 -25 48 -2 -4 8 -3 9 5 5 6 -4 9 -16 6 -27 -5 -15 -3 -17 11
-12 11 4 15 3 10 -5 -4 -7 2 -9 18 -6 15 2 26 -1 30 -12 4 -10 13 -13 25 -9
13 4 27 -1 42 -16 16 -16 28 -20 53 -15 18 3 26 2 18 -2 -18 -12 6 -31 41 -34
14 -1 23 -6 20 -11 -3 -4 4 -11 16 -14 12 -3 21 -13 21 -22 0 -9 3 -12 8 -6
11 15 55 12 60 -5 6 -16 27 -40 37 -40 3 0 4 4 1 9 -3 5 1 11 9 15 9 3 15 0
15 -9 0 -21 21 -30 32 -14 8 11 9 11 5 -2 -3 -9 -1 -22 4 -30 6 -9 9 -10 9 -2
0 18 31 4 59 -26 13 -14 20 -20 17 -13 -9 16 4 15 28 -3 16 -12 22 -12 29 -2
6 9 7 8 4 -3 -2 -10 -13 -14 -30 -12 -27 3 -37 -11 -17 -23 6 -3 10 -1 10 4 0
6 10 10 23 8 25 -2 51 -32 42 -47 -3 -6 -1 -10 4 -10 6 0 11 5 11 10 0 6 7 10
15 10 8 0 15 -5 15 -11 0 -5 -5 -7 -11 -4 -6 4 -5 -1 2 -13 7 -12 19 -17 31
-14 10 2 18 -1 18 -7 0 -6 -7 -11 -15 -11 -13 0 -14 -2 -3 -14 7 -8 15 -10 16
-5 7 19 22 8 22 -16 0 -24 12 -30 47 -26 7 1 9 -7 6 -20 -4 -15 -3 -20 5 -15
7 4 15 0 18 -8 3 -9 10 -13 15 -10 5 3 9 0 9 -6 0 -7 8 -9 23 -5 17 6 19 5 10
-5 -6 -7 -9 -19 -6 -26 4 -12 8 -12 21 -2 13 11 14 10 3 -9 -10 -20 -9 -22 5
-16 12 4 15 3 10 -5 -4 -7 -2 -12 4 -12 6 0 8 -4 5 -10 -3 -5 -8 -19 -10 -29
-3 -14 1 -19 14 -16 10 2 18 -3 18 -11 0 -13 -17 -19 -40 -15 -5 1 -6 -3 -2
-9 3 -6 11 -8 16 -5 5 4 9 2 9 -2 0 -5 13 -16 28 -25 20 -12 28 -24 27 -40 -3
-32 14 -61 31 -54 8 3 14 1 14 -5 0 -6 5 -7 12 -3 12 7 5 -8 -15 -34 -12 -15
-17 -52 -8 -52 16 1 37 27 34 40 -4 13 -3 13 6 0 7 -10 6 -19 -6 -32 -9 -10
-13 -21 -10 -25 4 -3 2 -12 -3 -18 -20 -25 17 -24 43 1 34 32 44 31 18 -2 -11
-15 -18 -30 -15 -35 9 -15 24 0 17 18 -4 11 -2 14 8 11 9 -3 13 -16 11 -33 -3
-24 -1 -27 11 -17 11 10 19 8 38 -8 13 -10 19 -19 14 -20 -6 0 -16 5 -23 12
-10 10 -11 3 -3 -56 0 -4 8 -5 17 -2 8 3 12 2 9 -4 -3 -6 -1 -10 4 -10 6 0 11
-6 11 -12 1 -18 72 -50 84 -38 16 16 25 12 19 -8 -3 -12 4 -23 22 -32 14 -8
23 -20 21 -27 -3 -7 -1 -13 4 -13 6 0 10 6 11 13 0 7 3 6 6 -3 11 -29 35 -49
51 -42 14 5 12 7 -8 12 -17 4 -26 13 -27 30 -3 25 -3 25 7 3 8 -20 27 -28 53
-24 4 1 3 -7 -3 -18 -5 -11 -10 -21 -10 -23 0 -3 31 -6 73 -8 12 -1 17 -6 13
-16 -4 -11 -1 -12 12 -6 20 10 32 10 50 -1 7 -5 12 -3 12 4 0 7 4 8 13 2 6 -5
26 -8 44 -7 20 1 39 -5 54 -19 17 -16 21 -17 16 -5 -3 9 1 22 9 28 8 7 14 8
14 3 0 -5 10 -9 22 -10 12 -1 26 -9 30 -18 12 -21 48 -20 48 3 0 12 -2 14 -8
4 -7 -9 -13 -7 -28 9 -11 14 -13 19 -4 13 8 -4 20 -9 25 -10 6 0 16 -2 23 -2
7 -1 12 -10 11 -19 -2 -30 1 -39 10 -25 4 7 19 14 32 16 14 1 30 5 36 9 7 5 9
0 6 -13 -3 -12 0 -20 6 -20 7 0 9 5 5 12 -5 8 0 9 17 5 13 -4 33 -7 44 -8 11
0 15 -3 8 -5 -7 -3 -9 -12 -6 -21 5 -12 3 -14 -7 -8 -9 6 -11 4 -5 -4 9 -15
-14 -63 -27 -55 -5 3 -15 1 -22 -5 -8 -7 -20 -10 -27 -9 -8 2 -13 -2 -12 -9 2
-7 -3 -10 -11 -7 -7 3 -20 -1 -27 -9 -8 -7 -23 -16 -34 -19 -11 -4 -56 -21
-100 -38 -44 -18 -97 -37 -119 -43 l-38 -12 8 -395 c4 -217 8 -417 9 -445 0
-45 -2 -50 -23 -53 -22 -3 -23 -6 -17 -55 11 -74 32 -870 24 -882 -3 -5 0
-212 9 -458 13 -387 13 -450 1 -458 -22 -14 -373 -11 -387 3 -7 7 -12 40 -12
80 0 37 -2 68 -5 68 -3 0 -20 -16 -37 -36 -47 -53 -107 -90 -192 -119 -66 -22
-95 -26 -199 -26 -180 -1 -273 29 -367 117 -73 68 -95 127 -95 249 0 93 2 105
33 168 63 127 181 181 514 237 224 38 257 46 286 73 48 45 11 137 -56 137 -16
0 -54 -11 -83 -24 -30 -14 -90 -31 -133 -38 -75 -12 -80 -15 -89 -43 -6 -16
-15 -33 -21 -37 -16 -11 -398 -9 -415 1 -19 12 -10 113 16 171 l18 43 -27 53
c-33 67 -43 145 -29 226 34 193 146 262 531 324 278 44 320 62 320 135 0 51
-8 67 -39 83 -50 25 -96 27 -172 7 -41 -11 -93 -23 -117 -26 -45 -7 -65 -27
-77 -77 l-7 -28 -210 0 -211 0 6 55 c3 30 17 79 30 109 24 52 24 55 7 71 -10
9 -31 44 -46 78 -26 54 -29 74 -29 157 0 87 3 101 33 162 63 128 186 186 510
238 78 13 142 26 142 29 0 7 -186 101 -199 101 -5 0 -12 -13 -16 -30 l-7 -30
-220 0 -221 0 5 64 c3 38 16 87 32 121 14 32 25 60 23 62 -5 5 -255 108 -285
117 -21 7 -20 3 13 -40 103 -135 107 -161 112 -687 4 -392 3 -438 -11 -443
-14 -5 -15 -19 -11 -83 4 -42 8 -258 11 -481 3 -223 7 -604 10 -847 l5 -442
-24 -7 c-14 -3 -117 -2 -229 3 l-203 8 -5 385 -5 385 -25 50 c-31 62 -71 86
-153 92 -91 8 -143 -10 -198 -66 -70 -73 -72 -86 -78 -491 l-6 -355 -227 -3
-228 -2 -2 377 c-1 208 -1 387 -1 398 1 11 2 130 3 265 l3 245 -32 3 c-24 3
-31 -1 -32 -15 -1 -10 -2 -304 -3 -653 l-1 -635 -227 -3 -228 -2 -6 24 c-7 30
3 1188 12 1273 5 51 3 69 -15 106 -17 34 -21 62 -21 136 0 85 2 93 21 98 19 5
20 10 14 117 -3 61 -7 176 -9 256 -3 80 -7 227 -11 326 -5 127 -3 184 4 188 8
5 11 99 11 297 l0 289 130 0 c72 0 130 4 130 9 0 5 -46 21 -102 37 -162 45
-192 84 -186 244 l3 85 165 5 165 5 -215 43 c-588 117 -1082 165 -1705 165
-470 1 -851 -26 -1280 -88 -195 -28 -595 -105 -595 -114 1 -3 29 -37 64 -75
l64 -69 67 17 c87 22 96 14 10 -9 -64 -18 -78 -32 -52 -53 9 -8 32 -5 82 9 80
22 308 74 374 84 29 5 41 4 37 -3 -7 -11 -82 -37 -303 -103 -79 -23 -143 -45
-143 -50 0 -4 10 -20 23 -35 l23 -27 95 31 c200 66 433 122 586 141 80 10 130
2 223 -36 8 -4 17 -7 20 -7 3 -1 11 -5 18 -9 13 -9 51 -18 92 -22 40 -3 42 -4
34 -17 -4 -7 -4 -10 1 -6 4 4 17 2 29 -4 11 -7 24 -13 29 -14 4 -1 10 -3 15
-4 4 -1 10 -2 15 -1 4 0 7 -4 7 -9 0 -6 9 -10 21 -10 15 0 19 -4 15 -16 -5
-13 -1 -15 18 -12 21 4 24 2 16 -12 -11 -20 -4 -31 15 -24 7 3 16 1 19 -4 3
-5 -8 -9 -25 -10 -53 -1 -45 -12 9 -12 80 0 82 -2 82 -83 l0 -70 35 36 c56 58
97 85 171 114 62 24 82 27 189 27 104 0 130 -4 194 -27 91 -32 172 -87 209
-139 55 -79 51 -75 64 -53 6 11 36 45 65 76 94 99 199 139 363 139 224 0 381
-86 463 -254 51 -104 57 -168 57 -617 0 -370 -2 -409 -16 -409 -13 0 -15 -6
-10 -32 8 -38 24 -965 25 -1470 l1 -348 -230 0 c-126 0 -231 1 -232 3 -1 1 -5
183 -8 404 -6 455 -1 432 -91 483 -37 21 -57 25 -125 24 -69 0 -87 -4 -126
-27 -26 -15 -57 -44 -70 -64 -23 -38 -23 -41 -28 -428 l-5 -390 -102 -3 -103
-3 0 -52 c0 -99 -36 -235 -90 -344 -48 -97 -127 -200 -171 -224 -18 -9 -18 -7
2 43 15 38 21 78 22 147 2 89 1 94 -23 110 -20 13 -23 13 -15 1 8 -13 6 -13
-8 -2 -9 8 -22 10 -28 6 -7 -4 -9 -3 -5 4 3 6 2 13 -4 17 -5 3 -10 1 -10 -6 0
-8 -6 -6 -18 4 -14 13 -21 14 -30 5 -9 -9 -13 -8 -17 4 -4 10 -15 13 -37 10
-27 -4 -30 -2 -24 14 6 17 6 17 -12 1 -18 -16 -20 -16 -45 3 -27 21 -47 26
-47 11 0 -6 -12 -6 -29 -1 -22 6 -33 4 -42 -6 -9 -11 -15 -12 -26 -2 -9 7 -17
8 -21 2 -9 -12 -42 -17 -42 -7 0 10 -61 9 -78 -1 -7 -4 -12 -2 -12 4 0 6 -4 9
-9 5 -6 -3 -16 1 -23 8 -7 8 -20 12 -29 10 -9 -3 -22 1 -30 9 -8 7 -18 13 -24
14 -33 3 -74 18 -69 25 3 5 1 9 -5 9 -14 0 -61 45 -61 59 0 6 -5 11 -11 11
-17 0 -41 29 -33 41 4 8 3 9 -4 5 -7 -4 -12 -1 -13 6 0 7 -3 22 -6 33 -3 11
-5 37 -5 58 0 20 -4 37 -9 37 -5 0 -8 3 -8 8 4 27 -2 32 -18 17 -16 -16 -18
-16 -35 5 -10 12 -18 17 -18 11 0 -6 -7 -11 -15 -11 -17 0 -20 17 -5 22 6 2 4
11 -5 23 -9 11 -13 13 -9 5 7 -13 6 -13 -10 -1 -9 8 -14 21 -11 29 3 9 0 12
-8 9 -11 -4 -13 4 -11 33 2 30 -1 38 -12 33 -11 -4 -12 -8 -3 -19 9 -12 9 -13
-4 -9 -8 4 -17 15 -20 26 -3 12 -1 17 6 13 7 -3 5 0 -4 8 -9 7 -19 23 -23 36
-4 13 -12 19 -18 16 -7 -5 -9 -1 -5 8 3 9 -1 24 -10 35 -13 15 -14 16 -9 1 3
-12 1 -15 -10 -11 -11 4 -14 13 -9 31 5 22 4 24 -8 13 -12 -9 -15 -9 -14 1 0
7 -1 24 -2 38 l-2 25 -13 -24 c-8 -14 -16 -19 -20 -13 -3 6 -2 13 4 17 5 3 10
11 10 17 0 6 -3 9 -6 5 -9 -9 -39 23 -39 42 0 9 -6 15 -13 13 -8 -1 -12 3 -10
9 2 7 -7 23 -20 36 -12 13 -20 28 -17 34 4 6 -1 16 -11 23 -12 9 -15 21 -11
37 6 23 5 23 -8 5 -8 -11 -16 -17 -16 -13 -1 4 -3 12 -4 17 -1 6 -3 17 -4 25
0 8 -7 12 -16 9 -10 -4 -15 0 -15 14 0 12 -5 24 -11 27 -6 4 -8 13 -5 21 3 8
1 14 -5 14 -6 0 -8 4 -5 9 3 5 -2 8 -12 7 -12 -1 -16 5 -15 22 2 13 -3 22 -11
22 -8 0 -17 9 -21 19 -4 14 -11 18 -23 14 -15 -6 -15 -5 -3 10 12 15 12 17 -1
12 -15 -6 -34 22 -23 33 3 3 5 -1 5 -9 0 -12 2 -12 9 1 17 25 2 29 -42 10
-122 -54 -334 -69 -453 -32 -110 34 -189 100 -233 192 -21 46 -26 69 -25 140
0 102 21 171 69 227 46 55 168 117 250 129 51 7 72 22 79 59 4 20 10 43 13 51
4 11 -8 14 -60 14 l-65 0 -21 -62 c-11 -35 -19 -53 -17 -40 2 12 -2 29 -10 36
-8 8 -14 20 -14 26 0 6 -4 8 -10 5 -5 -3 -10 1 -10 9 0 9 12 16 33 19 17 2
-24 5 -92 5 l-124 2 5 68 c3 37 12 81 20 97 19 37 8 75 -22 75 -11 0 -20 5
-20 11 0 5 4 8 9 4 5 -3 12 -1 16 5 3 5 1 10 -5 10 -19 0 -59 54 -54 73 3 11
0 17 -9 17 -8 0 -17 9 -20 20 -3 11 -16 24 -29 29 -12 6 -19 10 -14 10 4 1 -2
10 -15 21 -21 17 -21 19 -4 13 22 -7 24 -10 -35 55 -11 12 -20 26 -20 31 0 6
-5 13 -12 17 -7 5 -8 3 -3 -6 5 -8 4 -11 -3 -6 -6 3 -9 15 -7 25 2 12 -5 22
-21 30 -15 7 -24 18 -22 28 2 11 -2 17 -11 15 -10 -2 -12 5 -9 27 4 26 2 29
-14 20 -10 -5 -18 -6 -17 -2 4 24 -2 53 -12 53 -22 0 -67 59 -62 83 3 16 2 18
-5 8 -11 -15 -27 2 -17 19 3 6 1 10 -4 10 -6 0 -11 9 -11 20 0 11 -5 19 -12
18 -7 -2 -12 4 -13 12 -1 8 -6 14 -13 13 -6 -2 -9 4 -6 12 4 8 1 15 -4 15 -6
0 -14 9 -17 20 -3 11 -13 20 -20 20 -8 0 -17 5 -21 12 -4 6 -3 8 4 4 6 -3 14
-1 18 5 4 8 3 9 -4 5 -7 -4 -12 -3 -12 3 0 5 -9 8 -19 6 -17 -3 -18 0 -11 26
5 18 5 27 -1 24 -17 -11 -31 6 -18 22 11 12 10 14 -7 11 -15 -2 -18 2 -16 24
3 21 -1 27 -20 30 -15 2 -24 11 -26 26 -2 13 -10 26 -18 29 -8 3 -11 9 -8 14
3 5 1 9 -5 9 -5 0 -12 -6 -15 -12 -3 -7 -2 0 1 16 4 20 3 27 -6 22 -6 -4 -11
0 -11 10 0 13 -3 14 -15 4 -9 -7 -15 -8 -15 -2 0 5 -7 13 -16 16 -10 4 -13 2
-7 -7 4 -6 -5 -4 -20 6 -26 17 -27 17 -28 0 0 -16 -2 -15 -9 2 -5 11 -9 14 -9
8 -1 -16 -41 -17 -41 -2 0 6 -6 9 -12 6 -7 -2 -23 0 -35 4 -16 6 -23 5 -23 -4
0 -8 -3 -8 -9 2 -9 14 -37 5 -42 -14 -1 -5 -13 -33 -25 -60 -48 -103 -69 -296
-43 -388 12 -43 4 -61 -15 -35 -14 20 -26 14 -26 -13 0 -12 6 -16 20 -12 13 4
20 0 20 -9 0 -13 107 -178 181 -281 l30 -41 142 3 c153 2 215 -8 315 -54 82
-37 171 -133 221 -236 53 -110 71 -195 71 -342 0 -154 -20 -249 -75 -361 l-44
-90 34 -55 c18 -31 43 -84 55 -118 l22 -61 54 34 c29 19 55 34 58 34 3 0 13
-12 22 -26 15 -22 15 -27 3 -35 -12 -8 -12 -10 1 -19 8 -5 23 -10 33 -10 9 0
17 -7 17 -15 0 -18 -70 -21 -87 -4 -8 8 -20 4 -46 -15 l-34 -26 -6 -173 c-3
-94 -8 -180 -12 -190 -6 -14 -1 -12 20 7 15 14 33 26 39 26 6 0 22 23 34 51
28 59 81 114 146 149 32 17 49 21 56 14 8 -8 -7 -22 -50 -48 -52 -32 -110 -90
-110 -109 0 -4 24 9 53 28 28 19 71 45 94 59 l43 24 58 -81 c33 -45 72 -102
88 -127 16 -25 31 -47 35 -50 3 -3 20 -27 38 -53 29 -42 30 -47 11 -37 -12 6
-31 27 -42 46 l-20 34 -41 -25 c-23 -13 -81 -53 -130 -87 -48 -35 -101 -72
-117 -84 l-30 -21 27 -28 c37 -36 115 -75 151 -75 16 0 40 8 53 18 13 10 53
36 89 57 36 21 79 47 97 57 l32 19 35 -48 c20 -26 36 -54 36 -60 0 -7 -17 -22
-37 -33 -30 -16 -33 -19 -13 -16 83 15 88 15 94 1 5 -15 -16 -23 -127 -45 -42
-8 -77 -25 -120 -56 -34 -24 -91 -64 -127 -89 -36 -25 -103 -74 -150 -110 -47
-36 -123 -94 -169 -128 -46 -34 -120 -91 -165 -127 -45 -36 -108 -85 -140
-110 -32 -25 -97 -77 -145 -116 -47 -39 -153 -121 -236 -183 -82 -61 -155
-116 -162 -121 -7 -6 -15 -10 -19 -10 -3 0 -23 -13 -43 -28 -20 -16 -43 -31
-52 -34 -23 -9 -127 -76 -134 -88 -3 -5 -13 -10 -22 -10 -9 0 23 40 76 95 92
95 117 135 60 94 -30 -21 -31 -21 -20 -2 12 23 116 118 304 277 124 106 174
156 80 80 -74 -58 -83 -61 -28 -9 28 27 80 70 117 97 37 27 67 54 65 60 -1 6
5 12 14 13 10 2 45 30 79 64 35 33 66 58 70 56 4 -3 10 1 13 9 3 7 25 27 49
43 64 43 193 134 236 166 55 40 191 130 240 157 l43 24 -48 25 c-26 13 -68 39
-92 58 -41 31 -46 32 -65 18 -12 -8 -32 -23 -46 -33 -152 -106 -480 -344 -575
-416 -66 -50 -143 -107 -170 -126 -28 -19 -57 -40 -65 -47 -29 -24 -146 -109
-195 -143 -28 -18 -53 -38 -57 -44 -4 -6 -8 -7 -8 -3 0 5 -19 -7 -42 -26 -24
-20 -81 -62 -127 -95 -66 -47 -91 -60 -111 -56 -20 4 -40 -6 -95 -50 -38 -30
-71 -53 -73 -51 -3 2 -13 0 -23 -6 -37 -19 -17 6 93 120 86 88 96 105 18 31
-3 -3 -16 -14 -29 -25 l-24 -20 11 20 c5 11 20 29 32 40 12 11 45 49 73 85 28
36 92 112 142 168 49 57 90 107 90 110 0 4 -88 9 -195 12 l-195 5 -5 37 -5 37
-186 -182 c-102 -100 -226 -225 -274 -277 -85 -93 -86 -93 -26 -19 63 78 167
193 374 412 l118 125 -3 489 c-2 559 -6 670 -19 634 -6 -16 -14 -21 -25 -17
-12 4 -15 2 -10 -9 3 -8 2 -15 -3 -15 -5 0 -11 -60 -13 -132 -8 -212 -62 -344
-190 -463 -86 -79 -190 -131 -317 -157 -81 -17 -122 -19 -261 -15 -195 6 -247
17 -385 87 -66 33 -112 50 -136 50 -58 0 -140 18 -191 43 l-47 24 -3 -91 -3
-91 -227 -3 -228 -2 0 60 c0 33 -2 60 -5 60 -3 0 -29 -19 -58 -43 -125 -102
-320 -141 -515 -102 -201 40 -325 160 -404 386 -32 91 -33 99 -33 254 0 155 1
163 34 257 18 54 48 121 66 149 l32 51 -30 56 c-17 31 -42 93 -57 139 l-26 84
-136 -103 c-74 -57 -175 -137 -224 -178 -114 -96 -394 -369 -497 -485 -44 -49
-108 -119 -142 -155 -50 -53 -127 -140 -211 -240 -7 -8 -34 -37 -59 -64 -26
-28 -55 -61 -66 -74 -10 -14 -19 -21 -19 -16 0 4 -9 -2 -21 -15 -12 -12 -27
-20 -34 -17 -8 3 -15 1 -17 -5 -2 -5 -13 -2 -25 6 -16 11 -21 23 -18 45 3 19
0 30 -8 30 -8 0 -8 3 1 9 8 4 12 14 11 22 -6 26 43 154 104 274 34 66 65 125
69 130 4 6 26 38 49 72 61 95 207 237 382 374 88 68 173 135 190 149 18 14 92
72 167 130 139 109 183 141 380 283 l114 82 13 65 c21 103 51 184 93 249 l39
61 -39 56 c-74 106 -120 277 -120 452 0 42 -4 72 -8 67 -4 -6 -34 -33 -67 -59
-120 -96 -396 -350 -514 -471 -280 -290 -510 -587 -776 -1004 -55 -86 -110
-171 -122 -188 -13 -17 -23 -36 -23 -41 0 -6 -4 -12 -9 -14 -5 -1 -25 -34 -45
-73 -21 -38 -49 -90 -63 -115 -43 -75 -102 -182 -126 -230 -23 -47 -67 -102
-67 -85 0 6 -4 4 -9 -4 -6 -9 -18 -11 -32 -8 -22 6 -24 11 -23 74 0 37 2 70 3
73 1 3 4 12 6 20 30 147 127 389 279 695 151 304 265 491 472 776 180 246 340
433 597 696 399 407 760 683 1252 959 197 110 319 171 425 214 25 10 80 34
123 54 42 20 80 36 84 36 3 0 61 22 127 49 67 26 189 70 271 96 83 26 206 64
275 86 69 21 179 50 245 64 66 14 167 36 225 50 182 44 343 73 486 90 77 9
193 25 259 35 66 11 194 29 285 40 91 11 192 25 225 30 33 5 80 12 105 15 91
13 457 87 643 131 216 50 277 75 354 148 30 27 75 63 101 78 96 57 293 104
507 123 33 3 87 7 120 10 33 3 249 8 480 10 596 7 1054 15 1095 19 39 4 177
13 345 21 61 3 137 10 170 15 33 5 92 12 130 15 110 9 140 12 140 15 0 1 16 3
35 5 19 1 35 3 35 4 0 1 18 4 40 6 22 1 53 8 68 14 16 6 32 9 36 7 3 -2 29 0
56 6 63 12 89 16 146 23 25 4 97 20 160 36 63 17 143 37 179 46 36 8 74 19 85
24 11 4 38 13 60 19 22 6 47 14 55 18 8 3 20 7 25 7 38 6 135 40 135 47 0 5 4
7 9 3 5 -3 12 -1 16 5 3 5 13 10 22 10 15 0 83 29 93 39 10 12 131 71 126 62
-3 -5 3 -7 14 -4 11 3 18 9 15 13 -4 6 27 20 43 19 1 0 10 7 18 16 9 8 20 12
26 9 6 -4 8 -3 5 3 -4 6 10 19 31 29 20 10 39 22 42 25 3 3 15 11 28 18 12 6
22 18 22 26 0 8 3 14 8 13 4 0 22 5 39 14 27 11 31 17 20 28 -9 10 -9 12 1 6
6 -4 12 -2 12 3 0 6 3 11 8 10 14 -2 52 13 52 22 0 4 18 27 40 50 22 23 37 46
34 50 -3 5 3 6 12 2 12 -4 15 -3 10 5 -4 7 0 22 8 34 11 15 16 18 16 8 0 -9 7
-4 17 11 9 14 28 33 42 42 14 9 20 17 13 17 -8 0 -3 12 14 29 15 17 31 28 36
25 4 -3 5 1 2 9 -3 9 4 22 18 31 12 9 18 16 13 16 -5 0 8 15 28 34 20 18 37
39 37 45 0 6 7 11 15 11 8 0 15 5 15 10 0 13 62 69 77 70 6 0 21 16 33 35 12
19 26 33 30 30 5 -3 17 6 26 20 10 15 23 24 31 21 9 -4 13 0 11 11 -2 11 5 19
17 21 11 3 27 12 35 22 8 9 21 15 29 12 9 -3 11 0 7 9 -4 8 0 5 9 -6 16 -19
16 -19 13 -1 -2 14 4 20 27 23 16 2 32 6 34 9 7 7 15 4 41 -16z m-5915 -760
l30 -8 -30 -2 c-16 -1 -41 -3 -55 -5 -14 -1 -110 -6 -215 -9 -232 -8 -414 -15
-520 -21 l-80 -5 68 15 c57 12 194 25 387 38 93 7 386 4 415 -3z m5530 -1240
c3 -5 1 -10 -4 -10 -6 0 -11 5 -11 10 0 6 2 10 4 10 3 0 8 -4 11 -10z m85 -24
c0 -3 -4 -8 -10 -11 -5 -3 -10 -1 -10 4 0 6 5 11 10 11 6 0 10 -2 10 -4z
m-9390 -56 c-14 -11 -169 -117 -345 -235 -349 -233 -347 -231 -721 -550 -289
-245 -704 -647 -921 -892 -134 -152 -175 -192 -112 -110 208 268 772 825 1227
1210 170 143 402 304 776 534 99 62 145 82 96 43z m10025 -320 c3 -5 1 -10 -4
-10 -6 0 -11 5 -11 10 0 6 2 10 4 10 3 0 8 -4 11 -10z m162 -282 c-3 -8 -6 -5
-6 6 -1 11 2 17 5 13 3 -3 4 -12 1 -19z m98 -246 c-15 -16 -16 -16 -13 3 4 23
21 39 27 24 2 -6 -4 -18 -14 -27z m135 -96 c0 -2 -9 -6 -20 -9 -11 -3 -18 -1
-14 4 5 9 34 13 34 5z m514 -250 c-3 -9 -10 -16 -15 -16 -5 0 -4 9 3 20 14 22
21 20 12 -4z m346 -40 c0 -3 -4 -8 -10 -11 -5 -3 -10 -1 -10 4 0 6 5 11 10 11
6 0 10 -2 10 -4z m-28 -68 c-7 -7 -12 -8 -12 -2 0 14 12 26 19 19 2 -3 -1 -11
-7 -17z m-13342 -211 c0 -2 -12 -14 -27 -28 l-28 -24 24 28 c23 25 31 32 31
24z m12320 -2737 c0 -5 -5 -10 -11 -10 -5 0 -7 5 -4 10 3 6 8 10 11 10 2 0 4
-4 4 -10z m-15 -48 c2 -12 -1 -25 -7 -28 -6 -4 -8 -3 -5 3 4 6 0 14 -9 17 -12
5 -13 8 -2 20 15 17 17 15 23 -12z m-194 -425 c-8 -8 -11 -7 -11 4 0 20 13 34
18 19 3 -7 -1 -17 -7 -23z m84 -217 c-3 -5 -11 -10 -16 -10 -6 0 -7 5 -4 10 3
6 11 10 16 10 6 0 7 -4 4 -10z m-7050 -70 c-10 -11 -23 -20 -29 -20 -6 0 0 9
14 20 32 25 38 25 15 0z m7222 -332 c-3 -8 -6 -5 -6 6 -1 11 2 17 5 13 3 -3 4
-12 1 -19z m-77 -828 c0 -5 -2 -10 -4 -10 -3 0 -8 5 -11 10 -3 6 -1 10 4 10 6
0 11 -4 11 -10z"/>
<path d="M13472 5976 c7 -8 15 -12 17 -11 5 6 -10 25 -20 25 -5 0 -4 -6 3 -14z"/>
<path d="M5520 5803 c-271 -19 -463 -46 -721 -102 -213 -46 -540 -134 -615
-166 l-34 -14 0 -530 c0 -418 3 -531 13 -531 6 0 22 3 35 6 21 6 22 10 22 128
0 72 6 147 15 184 54 230 197 379 435 454 68 21 93 23 275 23 225 0 273 -9
405 -73 166 -81 296 -262 317 -445 7 -55 22 -67 58 -43 l25 16 0 260 0 260
218 0 218 0 19 56 c47 138 185 314 314 399 33 22 61 43 61 46 0 5 -81 24 -210
49 -120 23 -646 38 -850 23z"/>
<path d="M13670 5631 c0 -10 48 -12 54 -2 3 4 -9 8 -25 9 -16 1 -29 -2 -29 -7z"/>
<path d="M11030 5485 c0 -93 14 -136 52 -156 11 -6 65 -24 119 -39 118 -34
119 -35 119 -65 l0 -24 -132 -3 -133 -3 -3 -277 -2 -278 205 0 205 0 0 465 0
465 -215 0 -215 0 0 -85z"/>
<path d="M11484 5559 c-4 -6 -6 -365 -5 -798 1 -432 1 -840 0 -906 -3 -199 1
-369 10 -383 5 -8 21 -12 37 -10 l29 3 -4 883 -4 882 229 -2 229 -3 3 -82 c2
-46 5 -83 7 -83 2 0 27 25 56 55 93 99 206 145 355 145 46 0 74 4 69 9 -24 22
-594 198 -847 261 -68 17 -130 33 -140 36 -9 3 -20 0 -24 -7z"/>
<path d="M3990 5466 c-63 -24 -150 -60 -192 -79 l-78 -36 0 -125 c0 -68 -3
-131 -6 -140 -9 -23 -57 -20 -80 5 -33 37 -97 76 -155 94 l-57 18 -148 -88
c-163 -96 -355 -220 -394 -255 -14 -12 -47 -41 -75 -65 -27 -25 -61 -53 -75
-64 -24 -19 -25 -22 -25 -148 1 -101 5 -144 23 -206 23 -82 66 -175 99 -216
l19 -24 49 37 c87 67 170 98 294 112 52 5 61 8 45 17 -95 50 -143 191 -124
360 18 154 80 231 209 258 110 23 247 -5 309 -64 35 -32 72 -112 79 -168 l6
-49 203 0 204 0 0 435 c0 239 -3 435 -7 435 -5 -1 -60 -20 -123 -44z"/>
<path d="M3573 5282 c-51 -26 -93 -49 -93 -52 0 -4 22 -17 50 -29 27 -12 71
-42 98 -66 27 -25 52 -42 56 -38 13 13 1 234 -13 232 -3 0 -48 -21 -98 -47z"/>
<path d="M13980 5304 c0 -11 29 -34 34 -26 2 4 -4 13 -15 20 -10 7 -19 10 -19
6z"/>
<path d="M4804 5230 c-171 -22 -342 -107 -426 -214 -86 -108 -131 -245 -132
-401 -1 -144 -7 -139 111 -104 54 16 139 36 188 45 50 9 93 22 97 28 4 6 8 32
8 58 0 61 31 160 65 203 61 81 214 117 341 80 77 -22 145 -89 169 -167 23 -76
30 -186 15 -247 -7 -29 -10 -54 -8 -56 2 -2 97 43 211 101 l208 105 -6 47
c-29 214 -149 379 -339 465 -108 50 -346 77 -502 57z"/>
<path d="M10284 5225 c-34 -7 -84 -25 -111 -39 -55 -27 -135 -102 -158 -146
-18 -34 -51 -45 -70 -22 -148 177 -234 218 -446 210 -111 -4 -121 -6 -193 -41
-55 -28 -88 -53 -122 -91 -25 -30 -57 -56 -70 -59 -13 -2 -22 -1 -20 2 2 3 -2
11 -9 18 -16 15 -23 2 -21 -44 1 -17 -1 -29 -3 -27 -5 5 -37 -39 -32 -46 2 -3
7 -4 12 -3 5 2 9 -2 9 -7 0 -6 -7 -10 -16 -10 -9 0 -12 -5 -8 -11 5 -8 -1 -10
-20 -7 -20 4 -26 1 -26 -12 0 -20 -25 -44 -37 -37 -5 3 -18 -8 -28 -24 -11
-16 -33 -33 -48 -39 -16 -5 -26 -14 -22 -20 3 -5 1 -18 -5 -27 -10 -16 -11
-16 -5 2 5 15 3 17 -6 8 -6 -6 -18 -9 -27 -5 -11 4 -14 1 -9 -10 4 -11 -3 -20
-24 -28 -16 -7 -29 -17 -29 -22 0 -6 -7 -8 -15 -4 -8 3 -15 1 -15 -4 0 -6 -4
-10 -10 -10 -5 0 -11 30 -13 68 -2 37 -4 -53 -5 -200 l-2 -268 199 0 199 0 4
233 c4 216 6 236 27 284 28 63 85 118 138 132 96 27 221 6 277 -47 60 -57 66
-83 66 -338 l0 -231 58 -12 c113 -22 221 -89 274 -171 19 -28 41 -50 51 -50
16 0 17 22 17 326 0 372 3 396 64 459 93 97 294 98 383 3 51 -54 56 -86 55
-330 l-1 -228 27 -5 c159 -33 273 -111 337 -229 17 -31 33 -56 38 -56 12 0 8
812 -4 872 -26 127 -115 245 -225 301 -102 51 -258 69 -380 42z"/>
<path d="M12340 5230 c-108 -19 -214 -80 -279 -160 -23 -29 -39 -40 -54 -38
-20 3 -22 10 -25 86 l-3 82 -204 0 -205 0 0 -465 0 -465 204 0 204 0 4 213 c5
255 15 297 87 369 83 83 226 102 327 43 36 -21 52 -39 73 -84 25 -55 26 -62
29 -283 2 -126 7 -228 10 -228 4 0 38 -7 75 -15 130 -27 229 -106 278 -219 13
-31 28 -56 32 -56 5 0 6 199 4 443 -3 379 -6 449 -20 490 -57 167 -164 260
-327 286 -73 12 -144 12 -210 1z"/>
<path d="M5780 4960 l0 -240 38 16 c20 9 104 44 186 79 l148 63 3 113 c1 63 6
135 10 162 l8 47 -197 0 -196 0 0 -240z"/>
<path d="M9027 5193 c33 -3 43 -8 46 -26 4 -18 5 -17 6 6 1 26 -1 27 -46 25
l-48 -1 42 -4z"/>
<path d="M14596 5122 c-3 -5 1 -9 9 -9 8 0 12 4 9 9 -3 4 -7 8 -9 8 -2 0 -6
-4 -9 -8z"/>
<path d="M13106 4998 c-26 -40 -44 -92 -48 -138 l-3 -45 194 0 195 0 7 28 c7
27 5 30 -59 59 -103 47 -265 118 -268 118 -2 0 -10 -10 -18 -22z"/>
<path d="M4850 4901 c-110 -34 -170 -124 -170 -257 0 -46 3 -62 13 -59 43 15
243 42 248 33 4 -6 22 -2 48 11 22 12 41 20 41 17 0 -2 -69 -41 -152 -86 -84
-45 -159 -88 -166 -95 -32 -30 56 -124 134 -144 23 -6 69 -11 102 -11 52 0 67
5 137 48 43 26 86 58 96 72 42 56 49 231 14 331 -20 57 -76 113 -134 134 -45
16 -167 19 -211 6z"/>
<path d="M3295 4887 c-62 -21 -90 -43 -118 -95 -38 -70 -52 -172 -38 -267 25
-169 97 -230 271 -230 70 1 95 5 141 27 96 44 132 118 132 273 0 151 -41 238
-131 278 -58 25 -199 33 -257 14z"/>
<path d="M9290 4891 c-51 -11 -96 -37 -119 -70 -43 -60 -51 -126 -51 -430 l0
-286 44 50 c81 93 202 145 334 145 l64 0 -4 233 c-2 196 -6 237 -20 263 -26
48 -72 81 -128 93 -56 12 -68 12 -120 2z"/>
<path d="M10168 4890 c-51 -15 -94 -49 -118 -92 -25 -43 -25 -44 -28 -357 l-2
-313 44 45 c79 82 200 127 338 127 l58 0 0 230 c0 172 -3 239 -14 263 -17 42
-66 83 -114 97 -43 12 -125 12 -164 0z"/>
<path d="M12178 4890 c-46 -14 -88 -44 -115 -83 -47 -67 -53 -117 -53 -424 0
-156 3 -283 7 -283 3 0 32 27 64 59 87 90 213 141 346 141 l43 0 0 213 c0 276
-15 327 -104 368 -43 19 -138 24 -188 9z"/>
<path d="M14215 4849 c-16 -9 -41 -18 -55 -18 -14 -1 -38 -8 -54 -16 -31 -16
-35 -17 -103 -30 -24 -4 -43 -11 -43 -15 0 -4 -17 -11 -37 -15 -21 -4 -44 -12
-52 -18 -13 -11 -32 -17 -60 -19 -8 -1 -4 -8 10 -20 19 -14 13 -13 -28 5 l-52
24 -163 -28 c-90 -16 -190 -35 -223 -43 -155 -37 -251 -96 -294 -181 -23 -44
-26 -62 -26 -155 0 -91 3 -111 24 -150 44 -85 47 -85 103 -36 57 49 146 96
232 121 43 13 56 21 52 32 -30 77 -5 144 65 180 36 19 331 93 369 93 15 0 12
-89 -5 -146 -8 -27 -31 -69 -51 -92 l-36 -42 35 0 c50 0 178 -35 237 -65 65
-33 140 -106 165 -162 13 -27 27 -43 38 -43 18 0 18 10 12 183 -10 295 -26
671 -28 673 -1 1 -15 -7 -32 -17z"/>
<path d="M5980 4690 c-117 -53 -196 -95 -198 -104 -5 -22 -1 -21 79 20 39 19
73 34 75 32 2 -3 -32 -22 -76 -43 -44 -22 -80 -45 -80 -52 0 -18 3 -17 61 13
28 14 49 21 46 17 -3 -5 -28 -20 -56 -33 -40 -18 -51 -29 -51 -47 0 -23 0 -23
53 10 28 17 120 66 202 107 134 67 150 78 153 103 2 15 -1 27 -6 27 -6 0 -58
-23 -117 -50 -60 -28 -110 -49 -112 -47 -2 2 51 29 117 61 67 31 118 61 115
66 -3 6 -7 10 -8 10 -1 0 -90 -40 -197 -90z"/>
<path d="M8520 4622 c0 -31 -4 -52 -11 -52 -6 0 -8 -7 -5 -16 4 -11 1 -14 -12
-10 -9 3 -28 -1 -42 -9 -15 -9 -19 -15 -10 -15 8 0 0 -8 -17 -16 -18 -9 -33
-22 -33 -28 0 -7 -3 -7 -8 1 -4 7 -13 9 -19 5 -7 -5 22 -56 84 -147 l94 -140
-7 235 c-3 129 -8 237 -10 239 -2 2 -4 -19 -4 -47z"/>
<path d="M5978 4549 l-198 -99 0 -45 0 -44 77 51 c42 28 132 82 200 121 102
58 123 74 123 94 0 12 -1 23 -2 22 -2 0 -92 -45 -200 -100z"/>
<path d="M8632 4643 c-1 -7 -11 -13 -23 -13 -11 0 -17 -4 -14 -10 3 -5 -2 -10
-11 -10 -16 0 -17 -18 -11 -234 l5 -235 34 -48 c26 -38 34 -44 35 -28 2 11 -1
148 -5 305 -5 157 -10 279 -10 273z"/>
<path d="M5708 4564 c-16 -8 -28 -21 -28 -29 0 -12 5 -12 35 2 19 9 35 23 35
30 0 16 -8 16 -42 -3z"/>
<path d="M5703 4520 c-28 -17 -44 -40 -28 -40 17 0 75 36 75 47 0 18 -9 16
-47 -7z"/>
<path d="M5435 4426 c-110 -57 -215 -112 -233 -123 -31 -19 -32 -21 -11 -26
16 -4 81 26 237 111 186 101 249 143 215 142 -4 0 -98 -47 -208 -104z"/>
<path d="M13738 4505 c-170 -37 -218 -54 -251 -86 -26 -27 -29 -35 -24 -75 2
-25 9 -50 15 -56 6 -6 58 -7 142 -2 127 7 134 8 166 36 40 35 70 97 79 161 8
55 18 54 -127 22z"/>
<path d="M5705 4477 c-25 -14 -41 -31 -43 -45 -4 -28 0 -28 48 3 25 16 40 33
40 45 0 24 4 24 -45 -3z"/>
<path d="M5585 4461 c-27 -15 -116 -63 -197 -106 -140 -74 -168 -95 -133 -95
16 0 361 183 379 200 4 4 7 13 5 19 -2 6 -25 -2 -54 -18z"/>
<path d="M3692 4439 c-3 -26 -61 -106 -90 -125 -15 -10 -54 -25 -86 -34 l-60
-17 48 -16 c47 -16 48 -16 117 15 78 35 82 42 76 133 -2 33 -4 53 -5 44z"/>
<path d="M4610 4405 c-94 -59 -144 -83 -213 -101 -37 -10 -67 -23 -67 -29 0
-22 84 -125 102 -125 5 0 26 13 49 29 59 43 178 90 263 103 l73 12 -42 27
c-23 15 -51 39 -61 53 -51 73 -43 70 -104 31z"/>
<path d="M5459 4347 c-138 -75 -165 -93 -154 -104 8 -7 20 -13 29 -13 8 0 76
35 150 77 108 62 135 82 139 103 3 14 5 25 4 26 -1 0 -77 -40 -168 -89z"/>
<path d="M5696 4407 c-22 -12 -42 -29 -47 -37 -4 -8 -24 -48 -44 -88 l-37 -73
91 67 c91 66 91 66 91 110 0 24 -3 44 -7 44 -5 0 -26 -10 -47 -23z"/>
<path d="M11050 4316 l0 -56 130 0 c106 0 130 3 130 14 0 10 -30 24 -87 41
-93 27 -127 38 -155 50 -16 6 -18 1 -18 -49z"/>
<path d="M5473 4287 c-62 -34 -113 -64 -113 -67 0 -3 23 -20 50 -39 l50 -34
31 29 c30 29 89 107 89 119 0 3 -10 1 -22 -5 -22 -11 -22 -11 -3 4 36 28 45
37 45 46 0 16 -10 12 -127 -53z m57 -11 c0 -7 -131 -78 -135 -74 -3 2 26 21
63 41 71 39 72 39 72 33z"/>
<path d="M5130 4310 c-9 -6 -10 -10 -3 -10 6 0 15 5 18 10 8 12 4 12 -15 0z"/>
<path d="M4221 4254 c-29 -8 -57 -16 -61 -19 -10 -6 -23 -431 -15 -499 l7 -56
39 30 c31 26 40 40 50 88 6 31 20 82 32 112 21 58 92 176 120 199 15 12 13 17
-24 59 -22 26 -48 59 -57 74 -19 32 -18 32 -91 12z"/>
<path d="M8045 3980 c3 -5 10 -10 16 -10 5 0 9 5 9 10 0 6 -7 10 -16 10 -8 0
-12 -4 -9 -10z"/>
<path d="M8110 3950 c6 -11 15 -20 21 -20 6 0 6 7 -1 20 -6 11 -15 20 -21 20
-6 0 -6 -7 1 -20z"/>
<path d="M3413 3928 c-32 -17 -108 -59 -169 -94 -125 -72 -124 -70 -124 -194
0 -70 27 -178 54 -216 13 -19 28 -22 128 -26 81 -4 129 -12 168 -27 69 -27 72
-26 120 5 27 18 49 46 70 87 28 56 30 68 30 171 0 168 -34 252 -117 291 -73
35 -97 35 -160 3z"/>
<path d="M4805 3943 c-48 -25 -86 -65 -107 -111 -11 -24 -18 -45 -16 -48 3 -2
49 26 104 62 106 70 134 87 134 81 0 -2 -56 -41 -124 -86 l-124 -83 -7 -49
c-9 -66 3 -164 27 -221 22 -52 54 -87 67 -72 4 5 51 64 104 131 53 66 143 169
199 228 113 118 114 121 42 162 -45 26 -103 29 -144 8 -23 -12 -28 -12 -24 -2
7 20 -93 20 -131 0z"/>
<path d="M9256 3945 c-124 -44 -156 -128 -156 -403 l0 -152 31 -50 c17 -27 32
-50 34 -50 2 0 30 18 61 40 76 53 165 80 265 80 l79 0 0 193 c0 105 -5 208
-10 229 -13 45 -75 103 -127 117 -52 15 -130 13 -177 -4z"/>
<path d="M10152 3947 c-50 -19 -102 -65 -123 -111 -17 -37 -19 -69 -19 -320
l0 -279 53 50 c92 87 190 123 335 123 l84 0 -4 203 c-3 194 -4 204 -28 247
-35 64 -109 100 -199 99 -36 0 -81 -6 -99 -12z"/>
<path d="M12168 3946 c-82 -29 -127 -79 -152 -166 -17 -64 -30 -238 -20 -283
l6 -30 207 6 c114 4 222 10 239 13 l32 7 0 146 c0 80 -5 163 -10 183 -14 50
-55 97 -105 119 -48 22 -143 24 -197 5z"/>
<path d="M11033 3640 c0 -47 2 -66 4 -42 2 23 2 61 0 85 -2 23 -4 4 -4 -43z"/>
<path d="M4187 3683 l-37 -26 0 -75 0 -74 38 27 37 27 -38 -34 -37 -33 0 -465
0 -465 35 52 c34 51 35 55 35 150 0 54 7 126 15 161 19 79 72 195 114 246 17
21 31 41 31 43 0 2 -13 21 -30 41 -36 46 -94 170 -109 237 -7 28 -13 87 -14
132 -1 46 -2 83 -2 83 0 0 -17 -12 -38 -27z"/>
<path d="M6760 3612 c0 -13 -6 -22 -15 -22 -8 0 -15 -5 -15 -12 0 -6 -3 -8 -6
-5 -4 4 -19 -2 -34 -13 -16 -11 -33 -20 -39 -20 -6 0 -11 -4 -11 -10 0 -5 -12
-13 -27 -16 -16 -4 -33 -14 -40 -23 -7 -9 -13 -11 -13 -6 0 7 -3 7 -8 0 -10
-14 -75 -47 -67 -35 11 18 -13 11 -27 -8 -19 -26 -92 -55 -119 -48 -23 7 -23
7 -4 -9 11 -8 26 -13 35 -9 60 24 175 44 250 44 l86 0 21 43 c23 47 48 155 39
164 -3 4 -6 -3 -6 -15z"/>
<path d="M13730 3564 c-58 -13 -130 -31 -160 -40 -69 -21 -120 -69 -120 -114
0 -27 3 -31 18 -25 9 4 96 10 192 14 l175 6 17 35 c10 19 20 61 24 93 8 68 14
67 -146 31z"/>
<path d="M7763 3481 c-71 -56 -49 -168 38 -191 80 -22 214 17 274 80 22 23 26
33 17 42 -7 7 -12 8 -12 3 0 -6 -45 -11 -100 -13 l-101 -3 -48 49 c-46 47 -49
48 -68 33z"/>
<path d="M12330 3440 c-36 -4 -101 -8 -145 -9 -131 -2 -183 -11 -188 -32 -3
-11 -1 -22 4 -25 5 -3 9 -42 9 -86 l0 -81 63 60 c100 97 213 143 347 143 53 0
60 2 60 20 0 22 -24 24 -150 10z"/>
<path d="M10320 3379 c-106 -15 -169 -46 -242 -120 l-68 -67 0 -76 0 -76 -220
0 -220 0 0 170 0 170 -73 0 c-113 0 -227 -42 -286 -104 l-23 -24 58 -85 58
-85 62 -4 c109 -7 188 -65 214 -157 5 -20 10 -85 10 -144 l0 -108 58 -87 c77
-116 120 -213 143 -324 10 -51 19 -94 19 -95 0 -2 41 -3 90 -3 l90 0 0 353 c0
407 3 431 72 498 95 92 288 90 375 -3 51 -55 53 -70 53 -473 l0 -375 205 0
205 0 0 394 c0 216 -3 414 -6 440 l-7 46 -203 0 -204 0 0 169 c0 166 0 169
-22 175 -28 7 -67 6 -138 -5z"/>
<path d="M12343 3379 c-107 -18 -163 -47 -241 -125 -40 -41 -79 -74 -86 -74
-19 0 -26 -23 -26 -86 l0 -54 -208 0 -208 0 -3 -440 -2 -440 204 0 205 0 4
353 4 352 25 55 c28 60 82 113 138 138 22 9 66 16 112 16 105 1 162 -28 204
-104 l30 -55 3 -377 3 -378 193 0 193 0 6 68 c9 86 9 725 1 775 l-7 37 -203 0
-204 0 0 175 0 175 -42 -1 c-24 -1 -66 -5 -95 -10z"/>
<path d="M6485 3365 l-60 -12 80 -1 c48 -1 92 4 110 13 l30 13 -50 0 c-27 0
-77 -6 -110 -13z"/>
<path d="M3265 3354 c20 -12 59 -18 125 -20 94 -4 95 -4 60 12 -21 10 -71 18
-125 21 -89 4 -90 4 -60 -13z"/>
<path d="M13492 3363 c-40 -5 -40 -26 1 -57 55 -40 213 -18 284 40 l28 23
-140 -1 c-77 -1 -155 -3 -173 -5z"/>
<path d="M13842 3155 c-23 -25 -42 -47 -42 -49 0 -2 11 -7 25 -10 50 -13 79
-94 53 -150 -19 -42 -81 -63 -308 -101 -340 -58 -445 -104 -505 -220 -27 -53
-30 -67 -30 -154 1 -84 4 -103 28 -153 67 -138 199 -198 410 -185 177 11 262
44 355 138 42 43 54 51 75 45 23 -5 26 -12 32 -81 l7 -75 170 0 170 0 -5 33
c-3 17 -9 192 -12 387 -3 195 -8 379 -11 408 l-5 52 -164 0 -163 0 -7 80 c-4
50 -11 80 -19 80 -6 0 -31 -20 -54 -45z m46 -517 c-6 -86 -30 -139 -86 -190
-81 -73 -237 -102 -310 -58 -59 36 -78 118 -42 178 28 45 82 68 255 107 206
46 189 49 183 -37z"/>
<path d="M13709 2645 c-160 -36 -196 -51 -229 -92 -30 -38 -22 -98 16 -132 25
-21 35 -23 103 -19 118 7 210 64 246 153 16 39 29 125 18 124 -4 0 -74 -16
-154 -34z"/>
<path d="M4351 3130 c-22 -33 -49 -86 -61 -118 -27 -71 -52 -208 -48 -265 l3
-42 56 75 c198 268 233 322 216 331 -9 5 -37 25 -62 44 -25 19 -49 35 -54 35
-5 0 -27 -27 -50 -60z"/>
<path d="M7020 3149 c-56 -51 -166 -105 -242 -120 -32 -6 -58 -13 -58 -15 0
-1 9 -18 19 -36 29 -48 51 -143 51 -215 l0 -64 73 52 c39 28 125 87 190 131
117 78 118 80 111 111 -9 44 -57 147 -80 174 l-19 22 -45 -40z"/>
<path d="M2793 3127 c-70 -117 -102 -307 -83 -484 14 -131 47 -229 106 -316
98 -142 236 -207 444 -207 153 0 275 40 359 115 23 21 49 35 65 35 25 0 26 -2
26 -55 l0 -55 205 0 205 0 0 89 c0 55 -6 102 -15 124 -13 31 -13 41 0 84 11
37 15 109 15 316 l0 267 -210 0 -210 0 0 54 c0 30 -4 58 -10 61 -5 3 -34 -15
-65 -40 -31 -25 -60 -45 -65 -45 -6 0 -10 -4 -10 -10 0 -5 6 -10 13 -10 24 0
88 -63 115 -114 25 -48 27 -59 27 -186 0 -116 -3 -141 -21 -181 -48 -104 -135
-151 -277 -151 -106 -1 -161 17 -213 67 -61 59 -84 130 -84 260 0 110 15 176
52 228 11 16 19 29 17 31 -2 2 -35 8 -73 14 -87 14 -162 50 -229 112 l-53 49
-31 -52z"/>
<path d="M6200 3033 l0 -128 19 40 c17 37 65 89 108 114 16 10 17 12 2 21 -9
5 -36 26 -59 45 -68 57 -70 53 -70 -92z"/>
<path d="M13081 3103 c-17 -42 -31 -127 -22 -136 4 -4 93 -6 197 -5 187 3 189
3 192 26 3 20 -1 22 -42 22 -97 0 -235 49 -280 99 -25 27 -31 27 -45 -6z"/>
<path d="M6345 3033 c-96 -50 -130 -121 -130 -273 0 -122 13 -166 62 -221 36
-40 122 -79 171 -78 18 0 71 34 167 107 l140 107 -1 95 c0 114 -15 169 -55
215 -30 34 -33 35 -108 35 -42 0 -103 7 -136 15 -74 18 -73 18 -110 -2z"/>
<path d="M9347 3024 c10 -16 61 -92 113 -168 l95 -138 3 93 c2 81 0 98 -21
138 -28 55 -79 87 -155 97 l-53 7 18 -29z"/>
<path d="M3435 3024 c-27 -8 -86 -17 -130 -20 -93 -8 -112 -20 -144 -93 -27
-64 -36 -163 -22 -246 29 -163 100 -220 276 -220 140 0 211 44 251 156 25 70
29 174 10 249 -23 88 -59 138 -121 167 -56 26 -52 25 -120 7z"/>
<path d="M11055 3008 c-2 -7 -3 -206 -2 -443 l2 -430 200 0 200 0 0 440 0 440
-198 3 c-153 2 -198 0 -202 -10z"/>
<path d="M7135 2841 c-22 -14 -78 -50 -125 -80 -156 -98 -241 -164 -261 -202
-28 -56 -91 -104 -162 -124 -51 -14 -82 -33 -174 -108 -62 -49 -113 -94 -113
-98 0 -14 82 -56 139 -73 32 -9 92 -16 143 -16 l88 0 82 66 c79 63 280 211
360 264 40 26 51 47 68 120 11 53 13 267 2 274 -4 2 -25 -8 -47 -23z"/>
<path d="M5626 2823 c-4 -13 -14 -23 -21 -23 -9 0 -12 -6 -9 -15 4 -10 0 -15
-11 -15 -9 0 -13 -4 -10 -10 3 -5 1 -10 -5 -10 -6 0 -8 -5 -5 -10 3 -6 -1 -13
-9 -16 -9 -3 -16 -12 -16 -20 0 -13 -12 -18 -32 -15 -5 0 -7 -2 -5 -6 1 -5 -8
-18 -21 -31 -12 -12 -20 -27 -17 -32 5 -9 -6 -14 -26 -12 -3 1 -6 -5 -6 -13 0
-10 17 -5 59 16 82 42 72 28 -16 -20 -77 -43 -92 -48 -80 -29 4 7 3 8 -5 4 -6
-4 -9 -11 -6 -16 12 -19 -279 -148 -481 -213 -128 -41 -219 -63 -359 -85 l-50
-8 64 -33 c114 -58 194 -74 386 -74 190 0 274 16 392 73 94 46 202 153 247
244 44 89 74 215 54 227 -10 7 -10 9 0 9 13 0 15 86 3 130 l-7 25 -8 -22z"/>
<path d="M8267 2699 c7 -7 15 -10 18 -7 3 3 -2 9 -12 12 -14 6 -15 5 -6 -5z"/>
<path d="M6197 2590 c-5 -19 -13 -20 -211 -20 l-206 0 0 -372 0 -371 113 109
c61 60 151 145 200 188 81 74 87 82 87 118 0 39 1 39 34 37 30 -3 46 6 126 74
52 43 86 79 78 81 -107 31 -163 70 -196 136 -16 34 -20 37 -25 20z"/>
<path d="M6653 2509 c-35 -22 -46 -37 -15 -20 22 13 58 40 52 41 -3 0 -20 -10
-37 -21z"/>
<path d="M6236 2181 l-26 -27 0 -221 0 -221 62 64 c34 35 124 122 200 192 157
144 156 127 9 152 -49 8 -100 26 -147 50 l-72 38 -26 -27z"/>
<path d="M6070 2039 c-57 -50 -146 -130 -197 -179 -88 -83 -93 -90 -93 -129
l0 -41 200 0 200 0 0 220 c0 121 -1 220 -3 220 -2 0 -50 -41 -107 -91z"/>
<path d="M13520 1830 c0 -5 5 -10 11 -10 5 0 7 5 4 10 -3 6 -8 10 -11 10 -2 0
-4 -4 -4 -10z"/>
<path d="M13620 1280 c0 -5 5 -10 11 -10 5 0 7 5 4 10 -3 6 -8 10 -11 10 -2 0
-4 -4 -4 -10z"/>
</g>
</svg>
